<svg width="289" height="359" viewBox="0 0 289 359" fill="none" xmlns="http://www.w3.org/2000/svg">
<g clip-path="url(#clip0)">
<path d="M211.297 266.143C211.297 289.974 183.527 309.292 149.271 309.292C115.015 309.292 87.5862 289.974 87.5862 266.143C87.5862 242.313 115.015 222.994 149.271 222.994C183.527 222.994 211.297 242.313 211.297 266.143Z" fill="#737373" stroke="black" stroke-width="4"/>
<path fill-rule="evenodd" clip-rule="evenodd" d="M264.462 332.522C264.462 297.93 234.765 269.94 198.062 269.94H169.605C169.605 279.816 161.112 287.821 150.633 287.821C140.157 287.821 131.662 279.816 131.662 269.94H103.207C66.5043 269.94 36.8066 297.93 36.8066 332.522V359.342H264.462V332.522Z" fill="#3D3D3D" stroke="black" stroke-width="3"/>
<path d="M71.6707 359.164V314.463" stroke="black" stroke-width="4.05" stroke-linecap="round"/>
<path d="M228.168 359.164V314.463" stroke="black" stroke-width="4.05" stroke-linecap="round"/>
<path fill-rule="evenodd" clip-rule="evenodd" d="M202.878 270.631L196.708 274.888L173.241 282.185C173.241 282.185 165.463 283.65 166.261 282.784C171.192 277.429 171.63 270.864 171.63 270.864L202.878 270.631Z" fill="#CE7A50"/>
<path fill-rule="evenodd" clip-rule="evenodd" d="M90.0879 270.631L97.9178 274.276L123.301 280.886C123.301 280.886 131.715 282.214 130.852 281.429C125.518 276.578 124.962 270.631 124.962 270.631H90.0879Z" fill="#CE7A50"/>
<path fill-rule="evenodd" clip-rule="evenodd" d="M126.097 278.524C126.097 291.322 136.472 301.698 149.271 301.698V301.698C162.07 301.698 172.446 291.322 172.446 278.524V246.859C172.446 234.06 162.07 223.685 149.271 223.685V223.685C136.472 223.685 126.097 234.06 126.097 246.859V278.524Z" fill="white" stroke="black" stroke-width="4"/>
<path fill-rule="evenodd" clip-rule="evenodd" d="M209.756 146.734L213.766 147.13C218.199 147.568 221.188 154.542 220.449 162.724L219.78 170.124C218.67 182.398 212.391 191.798 205.742 191.141" fill="white"/>
<path d="M209.756 146.734L213.766 147.13C218.199 147.568 221.188 154.542 220.449 162.724L219.78 170.124C218.67 182.398 212.391 191.798 205.742 191.141" stroke="black" stroke-width="4.05"/>
<path fill-rule="evenodd" clip-rule="evenodd" d="M212.239 158.884C214.005 158.996 215.284 161.731 215.098 165L214.855 169.276" fill="white"/>
<path d="M212.239 158.884C214.005 158.996 215.284 161.731 215.098 165L214.855 169.276" stroke="black" stroke-width="4.05" stroke-linecap="round"/>
<path fill-rule="evenodd" clip-rule="evenodd" d="M88.7754 146.829L84.7579 147.132C80.3183 147.468 77.1746 154.372 77.7309 162.57L78.2342 169.986C79.0687 182.284 85.1347 191.827 91.7949 191.324" fill="white"/>
<path d="M88.7754 146.829L84.7579 147.132C80.3183 147.468 77.1746 154.372 77.7309 162.57L78.2342 169.986C79.0687 182.284 85.1347 191.827 91.7949 191.324" stroke="black" stroke-width="4.05"/>
<path fill-rule="evenodd" clip-rule="evenodd" d="M86.3501 158.859C84.5829 158.993 83.3333 161.742 83.5546 165.009L83.844 169.28" fill="white"/>
<path d="M86.3501 158.859C84.5829 158.993 83.3333 161.742 83.5546 165.009L83.844 169.28" stroke="black" stroke-width="4.05" stroke-linecap="round"/>
<path fill-rule="evenodd" clip-rule="evenodd" d="M149.023 67.6577C116.37 67.6577 87.927 96.0309 87.927 129.484L92.6982 196.785C97.1287 220.578 102.581 236.112 119.757 248.937C121.855 256.514 134.501 262.346 149.828 262.346C165.158 262.346 176.438 256.514 178.537 248.937C192.212 238.183 200.392 219.197 204.481 196.785L210.616 129.484C210.616 96.0309 181.675 67.6577 149.023 67.6577Z" fill="white" stroke="black" stroke-width="4.05"/>
<path d="M161.54 143.02C161.54 143.02 181.623 132.52 203.157 141.836" stroke="black" stroke-width="4.05" stroke-linecap="round" stroke-linejoin="round"/>
<path d="M136.556 143.02C136.556 143.02 116.473 132.52 94.9388 141.836" stroke="black" stroke-width="4.05" stroke-linecap="round" stroke-linejoin="round"/>
<path d="M125.415 154.301C125.415 156.398 122.821 158.098 119.622 158.098C116.422 158.098 113.828 156.398 113.828 154.301C113.828 152.204 116.422 150.504 119.622 150.504C122.821 150.504 125.415 152.204 125.415 154.301Z" fill="black"/>
<path d="M181.988 154.301C181.988 156.398 179.394 158.098 176.195 158.098C172.995 158.098 170.401 156.398 170.401 154.301C170.401 152.204 172.995 150.504 176.195 150.504C179.394 150.504 181.988 152.204 181.988 154.301Z" fill="black"/>
<path d="M140.41 192.617C142.785 195.571 146.487 197.45 150.643 197.45C154.799 197.45 158.499 195.571 160.859 192.617" stroke="black" stroke-width="3.6" stroke-linecap="round" stroke-linejoin="round"/>
<path d="M162.222 180.881C162.222 180.881 159.495 178.81 158.473 173.287C157.451 167.763 155.747 147.052 155.747 147.052" stroke="black" stroke-width="3.6" stroke-linecap="round" stroke-linejoin="round"/>
<path d="M143.137 147.052C143.137 147.052 142.455 166.728 141.433 173.977C140.411 181.226 138.025 181.226 138.025 181.226" stroke="black" stroke-width="3.6" stroke-linecap="round" stroke-linejoin="round"/>
<path d="M163.095 181.332C165.631 181.332 167.675 184.06 167.675 187.396C167.675 190.75 165.631 193.46 163.095 193.46C162.116 193.46 161.184 193.048 160.442 192.36" stroke="black" stroke-width="3.6" stroke-linecap="round" stroke-linejoin="round"/>
<path d="M140.131 192.36C139.391 193.045 138.471 193.457 137.492 193.457C134.959 193.457 132.913 190.75 132.913 187.396C132.913 184.06 134.944 181.353 137.477 181.332" stroke="black" stroke-width="3.6" stroke-linecap="round" stroke-linejoin="round"/>
<path d="M174.491 216.781C171.108 220.526 161.902 225.414 150.975 225.065C140.724 224.987 132.68 223.282 127.46 216.781" stroke="black" stroke-width="4.05" stroke-linecap="round"/>
<path d="M115.191 227.137V231.434" stroke="black" stroke-width="4.05" stroke-linecap="round"/>
<path d="M120.644 220.233V224.53" stroke="black" stroke-width="4.05" stroke-linecap="round"/>
<path d="M119.281 209.187V213.484" stroke="black" stroke-width="4.05" stroke-linecap="round"/>
<path d="M127.46 204.354V208.651" stroke="black" stroke-width="4.05" stroke-linecap="round"/>
<path d="M136.321 202.973V207.271" stroke="black" stroke-width="4.05" stroke-linecap="round"/>
<path d="M145.864 205.735V210.032" stroke="black" stroke-width="4.05" stroke-linecap="round"/>
<path d="M122.689 200.902V205.199" stroke="black" stroke-width="4.05" stroke-linecap="round"/>
<path d="M131.55 198.831V203.128" stroke="black" stroke-width="4.05" stroke-linecap="round"/>
<path d="M141.774 198.831V203.128" stroke="black" stroke-width="4.05" stroke-linecap="round"/>
<path d="M150.635 200.902V205.199" stroke="black" stroke-width="4.05" stroke-linecap="round"/>
<path d="M155.406 205.044V209.342" stroke="black" stroke-width="4.05" stroke-linecap="round"/>
<path d="M160.177 198.831V203.128" stroke="black" stroke-width="4.05" stroke-linecap="round"/>
<path d="M164.948 202.973V207.271" stroke="black" stroke-width="4.05" stroke-linecap="round"/>
<path d="M170.401 198.831V203.128" stroke="black" stroke-width="4.05" stroke-linecap="round"/>
<path d="M185.396 212.638V216.936" stroke="black" stroke-width="4.05" stroke-linecap="round"/>
<path d="M178.58 227.827V232.124" stroke="black" stroke-width="4.05" stroke-linecap="round"/>
<path d="M181.307 208.496V212.794" stroke="black" stroke-width="4.05" stroke-linecap="round"/>
<path d="M185.396 223.685V227.982" stroke="black" stroke-width="4.05" stroke-linecap="round"/>
<path d="M196.984 218.852V223.149" stroke="black" stroke-width="4.05" stroke-linecap="round"/>
<path d="M179.944 218.852V223.149" stroke="black" stroke-width="4.05" stroke-linecap="round"/>
<path d="M184.033 232.66V236.957" stroke="black" stroke-width="4.05" stroke-linecap="round"/>
<path d="M192.894 227.137V231.434" stroke="black" stroke-width="4.05" stroke-linecap="round"/>
<path d="M173.809 205.044V209.342M177.899 200.747V205.044" stroke="black" stroke-width="4.05" stroke-linecap="round"/>
<path d="M102.922 222.304V226.601" stroke="black" stroke-width="4.05" stroke-linecap="round"/>
<path d="M106.33 229.398V233.695" stroke="black" stroke-width="4.05" stroke-linecap="round"/>
<path d="M115.191 215.4V219.698" stroke="black" stroke-width="4.05" stroke-linecap="round"/>
<path d="M98.8328 214.71V219.007" stroke="black" stroke-width="4.05" stroke-linecap="round"/>
<path d="M112.465 236.112V240.254" stroke="black" stroke-width="4.05" stroke-linecap="round"/>
<path d="M137.684 259.585V263.882" stroke="black" stroke-width="4.05" stroke-linecap="round"/>
<path d="M151.316 260.275V264.573" stroke="black" stroke-width="4.05" stroke-linecap="round"/>
<path d="M164.267 258.894V263.192" stroke="black" stroke-width="4.05" stroke-linecap="round"/>
<path d="M157.451 244.396V248.694" stroke="black" stroke-width="4.05" stroke-linecap="round"/>
<path d="M165.63 238.873V243.171" stroke="black" stroke-width="4.05" stroke-linecap="round"/>
<path d="M166.993 247.158V251.455" stroke="black" stroke-width="4.05" stroke-linecap="round"/>
<path d="M178.58 238.183V242.48" stroke="black" stroke-width="4.05" stroke-linecap="round"/>
<path d="M183.352 243.706V248.003" stroke="black" stroke-width="4.05" stroke-linecap="round"/>
<path d="M160.859 251.99V256.288" stroke="black" stroke-width="4.05" stroke-linecap="round"/>
<path d="M155.406 253.371V257.669" stroke="black" stroke-width="4.05" stroke-linecap="round"/>
<path d="M172.446 243.706V248.003" stroke="black" stroke-width="4.05" stroke-linecap="round"/>
<path d="M189.486 234.731V239.028" stroke="black" stroke-width="4.05" stroke-linecap="round"/>
<path d="M172.446 234.731V239.028" stroke="black" stroke-width="4.05" stroke-linecap="round"/>
<path d="M142.455 252.681V256.978" stroke="black" stroke-width="4.05" stroke-linecap="round"/>
<path d="M147.908 252.681V256.978" stroke="black" stroke-width="4.05" stroke-linecap="round"/>
<path d="M151.316 244.396V248.694" stroke="black" stroke-width="4.05" stroke-linecap="round"/>
<path d="M143.819 244.396V248.694" stroke="black" stroke-width="4.05" stroke-linecap="round"/>
<path d="M175.172 253.371V257.669" stroke="black" stroke-width="4.05" stroke-linecap="round"/>
<path d="M130.868 256.823V261.121" stroke="black" stroke-width="4.05" stroke-linecap="round"/>
<path d="M127.46 236.112V240.254" stroke="black" stroke-width="4.05" stroke-linecap="round"/>
<path d="M122.689 242.325V246.467" stroke="black" stroke-width="4.05" stroke-linecap="round"/>
<path d="M119.281 247.158V251.3" stroke="black" stroke-width="4.05" stroke-linecap="round"/>
<path d="M117.918 238.873V243.015" stroke="black" stroke-width="4.05" stroke-linecap="round"/>
<path d="M121.326 232.66V236.802" stroke="black" stroke-width="4.05" stroke-linecap="round"/>
<path d="M128.142 248.539V252.681" stroke="black" stroke-width="4.05" stroke-linecap="round"/>
<path d="M131.55 241.635V245.777" stroke="black" stroke-width="4.05" stroke-linecap="round"/>
<path d="M136.321 249.919V254.062" stroke="black" stroke-width="4.05" stroke-linecap="round"/>
<path d="M139.047 241.635V245.777" stroke="black" stroke-width="4.05" stroke-linecap="round"/>
<path d="M144.5 260.275V264.417" stroke="black" stroke-width="4.05" stroke-linecap="round"/>
<path d="M158.132 260.275V264.417" stroke="black" stroke-width="4.05" stroke-linecap="round"/>
<path d="M169.719 256.133V260.275" stroke="black" stroke-width="4.05" stroke-linecap="round"/>
<path d="M124.052 252.681V256.823" stroke="black" stroke-width="4.05" stroke-linecap="round"/>
<path fill-rule="evenodd" clip-rule="evenodd" d="M131.081 283.089C131.081 283.089 115.637 279.754 109.269 275.938C102.902 272.123 94.6683 261.656 94.6683 261.656C94.6683 261.656 86.5638 263.945 86.5638 264.375C86.5638 264.511 87.5459 272.611 93.1701 279.436C98.7942 286.26 104.828 287.285 109.269 290.814C120.122 299.439 141.774 306.531 141.774 306.531L139.391 290.814L131.081 283.089Z" fill="url(#paint0_linear)"/>
<path d="M131.55 283.748C131.55 283.748 106.644 279.458 101.259 268.017C95.8737 256.576 112.702 243.706 112.702 243.706" stroke="black" stroke-width="4"/>
<path d="M89.9254 262.772C89.9698 261.668 89.1111 260.737 88.0074 260.693C86.9037 260.649 85.973 261.507 85.9286 262.611L89.9254 262.772ZM127.07 296.102L127.434 294.136L127.394 294.128L127.354 294.122L127.07 296.102ZM85.9286 262.611C85.583 271.196 89.9813 279.263 97.2721 285.525C104.569 291.792 114.882 296.374 126.786 298.082L127.354 294.122C116.092 292.507 106.518 288.193 99.8783 282.491C93.2321 276.783 89.6422 269.806 89.9254 262.772L85.9286 262.611ZM126.705 298.069C130.348 298.744 134.16 299.466 137.095 301.206C138.52 302.05 139.676 303.104 140.484 304.463C141.289 305.817 141.818 307.589 141.818 309.983H145.818C145.818 306.973 145.145 304.474 143.922 302.418C142.703 300.368 141.007 298.875 139.135 297.765C135.476 295.596 130.914 294.781 127.434 294.136L126.705 298.069Z" fill="black"/>
<path fill-rule="evenodd" clip-rule="evenodd" d="M167.197 284.862C167.197 284.862 182.26 281.681 188.471 278.041C194.681 274.401 202.711 264.417 202.711 264.417C202.711 264.417 210.616 266.601 210.616 267.011C210.616 267.141 209.658 274.867 204.172 281.377C198.687 287.886 192.802 288.863 188.471 292.23C177.885 300.456 156.769 307.221 156.769 307.221L159.093 292.23L167.197 284.862Z" fill="url(#paint1_linear)"/>
<path fill-rule="evenodd" clip-rule="evenodd" d="M119.962 280.987L143.41 282.832C143.41 282.832 148.294 291.742 148.294 298.609C148.294 325.163 149.271 359 149.271 359H139.502C139.502 359 141.23 317.948 138.525 297.778C136.833 285.166 119.962 280.987 119.962 280.987Z" fill="#3691BF" stroke="black" stroke-width="3"/>
<path d="M166.993 283.748C166.993 283.748 192.212 279.261 197.665 268.214C203.118 257.168 185.841 243.015 185.841 243.015" stroke="black" stroke-width="4"/>
<path d="M211.297 266.488C211.297 279.228 195.588 291.457 173.392 295.857C166.613 297.2 157.45 298.985 157.45 309.983" stroke="black" stroke-width="4"/>
<path fill-rule="evenodd" clip-rule="evenodd" d="M179.262 280.296L156.043 282.76C156.043 282.76 150.239 291.678 150.239 298.551C150.239 325.131 149.271 359 149.271 359H158.946C158.946 359 157.234 317.909 159.913 297.72C161.588 285.096 179.262 280.296 179.262 280.296Z" fill="#3691BF" stroke="black" stroke-width="3"/>
</g>
<defs>
<linearGradient id="paint0_linear" x1="121.794" y1="264.535" x2="130.297" y2="287.548" gradientUnits="userSpaceOnUse">
<stop stop-color="#737373"/>
<stop offset="1" stop-color="#3D3D3D"/>
</linearGradient>
<linearGradient id="paint1_linear" x1="176.255" y1="267.164" x2="168.281" y2="289.229" gradientUnits="userSpaceOnUse">
<stop stop-color="#737373"/>
<stop offset="1" stop-color="#3D3D3D"/>
</linearGradient>
<clipPath id="clip0">
<rect width="289" height="359" fill="white"/>
</clipPath>
</defs>
</svg>
